<?xml version="1.0" encoding="UTF-8"?>
<!DOCTYPE svg PUBLIC "-//W3C//DTD SVG 1.1//EN" "http://www.w3.org/Graphics/SVG/1.1/DTD/svg11.dtd">
<svg xmlns="http://www.w3.org/2000/svg" version="1.1" width="65px" height="52px" style="shape-rendering:geometricPrecision; text-rendering:geometricPrecision; image-rendering:optimizeQuality; fill-rule:evenodd; clip-rule:evenodd" xmlns:xlink="http://www.w3.org/1999/xlink">
<g><path style="opacity:0.623" fill="#fe3c56" d="M -0.5,-0.5 C 0.833333,-0.5 2.16667,-0.5 3.5,-0.5C 3.83333,2.5 2.5,3.83333 -0.5,3.5C -0.5,2.16667 -0.5,0.833333 -0.5,-0.5 Z"/></g>
<g><path style="opacity:0.588" fill="#fe3c56" d="M 11.5,-0.5 C 12.8333,-0.5 14.1667,-0.5 15.5,-0.5C 15.5,0.833333 15.5,2.16667 15.5,3.5C 14.1667,3.5 12.8333,3.5 11.5,3.5C 11.5,2.16667 11.5,0.833333 11.5,-0.5 Z"/></g>
<g><path style="opacity:0.55" fill="#fe3c56" d="M 23.5,-0.5 C 24.8333,-0.5 26.1667,-0.5 27.5,-0.5C 28.7632,3.06612 27.5966,4.06612 24,2.5C 23.5172,1.55198 23.3505,0.551975 23.5,-0.5 Z"/></g>
<g><path style="opacity:0.551" fill="#fe3c56" d="M 36.5,-0.5 C 37.8333,-0.5 39.1667,-0.5 40.5,-0.5C 40.1144,3.73759 38.4477,4.40425 35.5,1.5C 35.8627,0.816537 36.1961,0.14987 36.5,-0.5 Z"/></g>
<g><path style="opacity:0.588" fill="#fe3c56" d="M 48.5,-0.5 C 49.8333,-0.5 51.1667,-0.5 52.5,-0.5C 52.5,0.833333 52.5,2.16667 52.5,3.5C 51.1667,3.5 49.8333,3.5 48.5,3.5C 48.5,2.16667 48.5,0.833333 48.5,-0.5 Z"/></g>
<g><path style="opacity:0.622" fill="#fe3c56" d="M 60.5,-0.5 C 61.8333,-0.5 63.1667,-0.5 64.5,-0.5C 64.5,0.833333 64.5,2.16667 64.5,3.5C 61.5,3.83333 60.1667,2.5 60.5,-0.5 Z"/></g>
<g><path style="opacity:0.624" fill="#fe3c56" d="M -0.5,11.5 C 0.833333,11.5 2.16667,11.5 3.5,11.5C 3.83333,14.5 2.5,15.8333 -0.5,15.5C -0.5,14.1667 -0.5,12.8333 -0.5,11.5 Z"/></g>
<g><path style="opacity:0.589" fill="#fe3c56" d="M 11.5,11.5 C 12.8333,11.5 14.1667,11.5 15.5,11.5C 15.5,12.8333 15.5,14.1667 15.5,15.5C 14.1667,15.5 12.8333,15.5 11.5,15.5C 11.5,14.1667 11.5,12.8333 11.5,11.5 Z"/></g>
<g><path style="opacity:0.549" fill="#fe3c56" d="M 23.5,11.5 C 24.8734,11.3433 26.2068,11.51 27.5,12C 28.6745,14.8288 27.6745,15.8288 24.5,15C 23.6634,13.9887 23.33,12.8221 23.5,11.5 Z"/></g>
<g><path style="opacity:0.549" fill="#fe3c56" d="M 36.5,11.5 C 37.8333,11.5 39.1667,11.5 40.5,11.5C 40.1144,15.7376 38.4477,16.4043 35.5,13.5C 35.8627,12.8165 36.1961,12.1499 36.5,11.5 Z"/></g>
<g><path style="opacity:0.589" fill="#fe3c56" d="M 48.5,11.5 C 49.8333,11.5 51.1667,11.5 52.5,11.5C 52.5,12.8333 52.5,14.1667 52.5,15.5C 51.1667,15.5 49.8333,15.5 48.5,15.5C 48.5,14.1667 48.5,12.8333 48.5,11.5 Z"/></g>
<g><path style="opacity:0.622" fill="#fe3c56" d="M 64.5,11.5 C 64.5,12.8333 64.5,14.1667 64.5,15.5C 61.5,15.8333 60.1667,14.5 60.5,11.5C 61.8333,11.5 63.1667,11.5 64.5,11.5 Z"/></g>
<g><path style="opacity:0.58" fill="#fe3c56" d="M -0.5,23.5 C 0.833333,23.5 2.16667,23.5 3.5,23.5C 3.5,24.8333 3.5,26.1667 3.5,27.5C 2.16667,27.5 0.833333,27.5 -0.5,27.5C -0.5,26.1667 -0.5,24.8333 -0.5,23.5 Z"/></g>
<g><path style="opacity:0.585" fill="#fe3c56" d="M 11.5,23.5 C 12.8333,23.5 14.1667,23.5 15.5,23.5C 15.5,24.8333 15.5,26.1667 15.5,27.5C 14.1667,27.5 12.8333,27.5 11.5,27.5C 11.5,26.1667 11.5,24.8333 11.5,23.5 Z"/></g>
<g><path style="opacity:0.58" fill="#fe3c56" d="M 24.5,23.5 C 27.1662,23.0658 28.3329,24.0658 28,26.5C 24.4034,28.0661 23.2368,27.0661 24.5,23.5 Z"/></g>
<g><path style="opacity:0.581" fill="#fe3c56" d="M 36.5,23.5 C 39.1662,23.0658 40.3329,24.0658 40,26.5C 36.4034,28.0661 35.2368,27.0661 36.5,23.5 Z"/></g>
<g><path style="opacity:0.584" fill="#fe3c56" d="M 48.5,23.5 C 49.8333,23.5 51.1667,23.5 52.5,23.5C 52.5,24.8333 52.5,26.1667 52.5,27.5C 51.1667,27.5 49.8333,27.5 48.5,27.5C 48.5,26.1667 48.5,24.8333 48.5,23.5 Z"/></g>
<g><path style="opacity:0.578" fill="#fe3c56" d="M 64.5,23.5 C 64.5,24.8333 64.5,26.1667 64.5,27.5C 63.1667,27.5 61.8333,27.5 60.5,27.5C 60.5,26.1667 60.5,24.8333 60.5,23.5C 61.8333,23.5 63.1667,23.5 64.5,23.5 Z"/></g>
<g><path style="opacity:0.623" fill="#fe3c56" d="M -0.5,35.5 C 2.5,35.1667 3.83333,36.5 3.5,39.5C 2.16667,39.5 0.833333,39.5 -0.5,39.5C -0.5,38.1667 -0.5,36.8333 -0.5,35.5 Z"/></g>
<g><path style="opacity:0.59" fill="#fe3c56" d="M 11.5,35.5 C 12.8333,35.5 14.1667,35.5 15.5,35.5C 15.5,36.8333 15.5,38.1667 15.5,39.5C 14.1667,39.5 12.8333,39.5 11.5,39.5C 11.5,38.1667 11.5,36.8333 11.5,35.5 Z"/></g>
<g><path style="opacity:0.55" fill="#fe3c56" d="M 24.5,35.5 C 27.694,35.1756 28.694,36.3422 27.5,39C 26.2068,39.49 24.8734,39.6567 23.5,39.5C 23.4326,38.0413 23.7659,36.7079 24.5,35.5 Z"/></g>
<g><path style="opacity:0.55" fill="#fe3c56" d="M 36.5,35.5 C 39.5,35.1667 40.8333,36.5 40.5,39.5C 36.56,40.234 35.2266,38.9007 36.5,35.5 Z"/></g>
<g><path style="opacity:0.59" fill="#fe3c56" d="M 48.5,35.5 C 49.8333,35.5 51.1667,35.5 52.5,35.5C 52.5,36.8333 52.5,38.1667 52.5,39.5C 51.1667,39.5 49.8333,39.5 48.5,39.5C 48.5,38.1667 48.5,36.8333 48.5,35.5 Z"/></g>
<g><path style="opacity:0.623" fill="#fe3c56" d="M 64.5,35.5 C 64.5,36.8333 64.5,38.1667 64.5,39.5C 63.1667,39.5 61.8333,39.5 60.5,39.5C 60.1667,36.5 61.5,35.1667 64.5,35.5 Z"/></g>
<g><path style="opacity:0.624" fill="#fe3c56" d="M -0.5,47.5 C 2.5,47.1667 3.83333,48.5 3.5,51.5C 2.16667,51.5 0.833333,51.5 -0.5,51.5C -0.5,50.1667 -0.5,48.8333 -0.5,47.5 Z"/></g>
<g><path style="opacity:0.59" fill="#fe3c56" d="M 15.5,51.5 C 14.1667,51.5 12.8333,51.5 11.5,51.5C 11.5,50.1667 11.5,48.8333 11.5,47.5C 12.8333,47.5 14.1667,47.5 15.5,47.5C 15.5,48.8333 15.5,50.1667 15.5,51.5 Z"/></g>
<g><path style="opacity:0.549" fill="#fe3c56" d="M 27.5,51.5 C 26.1667,51.5 24.8333,51.5 23.5,51.5C 23.8856,47.2624 25.5523,46.5957 28.5,49.5C 28.1373,50.1835 27.8039,50.8501 27.5,51.5 Z"/></g>
<g><path style="opacity:0.551" fill="#fe3c56" d="M 40.5,51.5 C 39.1667,51.5 37.8333,51.5 36.5,51.5C 35.2368,47.9339 36.4034,46.9339 40,48.5C 40.4828,49.448 40.6495,50.448 40.5,51.5 Z"/></g>
<g><path style="opacity:0.59" fill="#fe3c56" d="M 52.5,51.5 C 51.1667,51.5 49.8333,51.5 48.5,51.5C 48.5,50.1667 48.5,48.8333 48.5,47.5C 49.8333,47.5 51.1667,47.5 52.5,47.5C 52.5,48.8333 52.5,50.1667 52.5,51.5 Z"/></g>
<g><path style="opacity:0.624" fill="#fe3c56" d="M 64.5,47.5 C 64.5,48.8333 64.5,50.1667 64.5,51.5C 63.1667,51.5 61.8333,51.5 60.5,51.5C 60.1667,48.5 61.5,47.1667 64.5,47.5 Z"/></g>
</svg>
