<?xml version="1.0" encoding="UTF-8"?>
<svg xmlns="http://www.w3.org/2000/svg" xmlns:xlink="http://www.w3.org/1999/xlink" width="18px" height="px" viewBox="0 0 18 20" version="1.1">
<g id="surface1">
<path style=" stroke:none;fill-rule:nonzero;fill:rgb(0%,0%,0%);fill-opacity:1;" d="M 16.070312 1.25 L 1.929688 1.25 C 0.863281 1.25 0 2.089844 0 3.125 L 0 16.875 C 0 17.910156 0.863281 18.75 1.929688 18.75 L 7.441406 18.75 L 7.441406 12.800781 L 4.910156 12.800781 L 4.910156 10 L 7.441406 10 L 7.441406 7.867188 C 7.441406 5.4375 8.929688 4.097656 11.207031 4.097656 C 12.296875 4.097656 13.4375 4.285156 13.4375 4.285156 L 13.4375 6.667969 L 12.179688 6.667969 C 10.941406 6.667969 10.558594 7.414062 10.558594 8.183594 L 10.558594 10 L 13.320312 10 L 12.878906 12.800781 L 10.558594 12.800781 L 10.558594 18.75 L 16.070312 18.75 C 17.136719 18.75 18 17.910156 18 16.875 L 18 3.125 C 18 2.089844 17.136719 1.25 16.070312 1.25 Z M 16.070312 1.25 "/>
</g>
</svg>
