<?xml version="1.0" encoding="UTF-8"?>
<svg xmlns="http://www.w3.org/2000/svg" xmlns:xlink="http://www.w3.org/1999/xlink" width="18px" height="px" viewBox="0 0 18 20" version="1.1">
<g id="surface1">
<path style=" stroke:none;fill-rule:nonzero;fill:rgb(0%,0%,0%);fill-opacity:1;" d="M 16.714844 1.25 L 1.28125 1.25 C 0.574219 1.25 0 1.816406 0 2.511719 L 0 17.488281 C 0 18.183594 0.574219 18.75 1.28125 18.75 L 16.714844 18.75 C 17.421875 18.75 18 18.183594 18 17.488281 L 18 2.511719 C 18 1.816406 17.421875 1.25 16.714844 1.25 Z M 5.441406 16.25 L 2.773438 16.25 L 2.773438 7.898438 L 5.445312 7.898438 L 5.445312 16.25 Z M 4.105469 6.757812 C 3.25 6.757812 2.558594 6.082031 2.558594 5.253906 C 2.558594 4.425781 3.25 3.75 4.105469 3.75 C 4.957031 3.75 5.652344 4.425781 5.652344 5.253906 C 5.652344 6.085938 4.960938 6.757812 4.105469 6.757812 Z M 15.441406 16.25 L 12.773438 16.25 L 12.773438 12.1875 C 12.773438 11.21875 12.753906 9.972656 11.386719 9.972656 C 9.996094 9.972656 9.785156 11.027344 9.785156 12.117188 L 9.785156 16.25 L 7.117188 16.25 L 7.117188 7.898438 L 9.675781 7.898438 L 9.675781 9.039062 L 9.710938 9.039062 C 10.070312 8.382812 10.941406 7.691406 12.238281 7.691406 C 14.9375 7.691406 15.441406 9.421875 15.441406 11.671875 Z M 15.441406 16.25 "/>
</g>
</svg>
