<?xml version="1.0" encoding="UTF-8"?>
<svg xmlns="http://www.w3.org/2000/svg" xmlns:xlink="http://www.w3.org/1999/xlink" width="50px" height="50px" viewBox="0 0 50 50" version="1.1">
<g id="surface1">
<path style=" stroke:none;fill-rule:nonzero;fill:rgb(100%,71.372549%,0%);fill-opacity:1;" d="M 49.609375 25 C 49.609375 33.125 43.046875 39.765625 34.84375 39.765625 C 26.71875 39.765625 20.078125 33.125 20.078125 25 C 20.078125 16.875 26.640625 10.234375 34.765625 10.234375 C 43.046875 10.234375 49.609375 16.875 49.609375 25 Z M 49.609375 25 "/>
<path style=" stroke:none;fill-rule:nonzero;fill:rgb(96.862745%,59.607843%,11.372549%);fill-opacity:1;" d="M 34.84375 10.234375 C 42.96875 10.234375 49.609375 16.875 49.609375 25 C 49.609375 33.125 43.046875 39.765625 34.84375 39.765625 C 26.71875 39.765625 20.078125 33.125 20.078125 25 "/>
<path style=" stroke:none;fill-rule:nonzero;fill:rgb(100%,52.156863%,0%);fill-opacity:1;" d="M 34.84375 10.234375 C 42.96875 10.234375 49.609375 16.875 49.609375 25 C 49.609375 33.125 43.046875 39.765625 34.84375 39.765625 "/>
<path style=" stroke:none;fill-rule:nonzero;fill:rgb(100%,31.372549%,31.372549%);fill-opacity:1;" d="M 15 10.234375 C 6.953125 10.3125 0.390625 16.875 0.390625 25 C 0.390625 33.125 6.953125 39.765625 15.15625 39.765625 C 18.984375 39.765625 22.421875 38.28125 25.078125 35.9375 C 25.625 35.46875 26.09375 34.921875 26.5625 34.375 L 23.515625 34.375 C 23.125 33.90625 22.734375 33.359375 22.421875 32.890625 L 27.65625 32.890625 C 27.96875 32.421875 28.28125 31.875 28.515625 31.328125 L 21.5625 31.328125 C 21.328125 30.859375 21.09375 30.3125 20.9375 29.765625 L 29.0625 29.765625 C 29.53125 28.28125 29.84375 26.71875 29.84375 25.078125 C 29.84375 23.984375 29.6875 22.96875 29.53125 21.953125 L 20.46875 21.953125 C 20.546875 21.40625 20.703125 20.9375 20.859375 20.390625 L 28.984375 20.390625 C 28.828125 19.84375 28.59375 19.296875 28.359375 18.828125 L 21.484375 18.828125 C 21.71875 18.28125 22.03125 17.8125 22.34375 17.265625 L 27.578125 17.265625 C 27.265625 16.71875 26.875 16.171875 26.40625 15.703125 L 23.515625 15.703125 C 23.984375 15.15625 24.453125 14.6875 25 14.21875 C 22.421875 11.796875 18.90625 10.390625 15.078125 10.390625 C 15.078125 10.234375 15.078125 10.234375 15 10.234375 Z M 15 10.234375 "/>
<path style=" stroke:none;fill-rule:nonzero;fill:rgb(89.803922%,15.686275%,21.176471%);fill-opacity:1;" d="M 0.390625 25 C 0.390625 33.125 6.953125 39.765625 15.15625 39.765625 C 18.984375 39.765625 22.421875 38.28125 25.078125 35.9375 C 25.625 35.46875 26.09375 34.921875 26.5625 34.375 L 23.515625 34.375 C 23.125 33.90625 22.734375 33.359375 22.421875 32.890625 L 27.65625 32.890625 C 27.96875 32.421875 28.28125 31.875 28.515625 31.328125 L 21.5625 31.328125 C 21.328125 30.859375 21.09375 30.3125 20.9375 29.765625 L 29.0625 29.765625 C 29.53125 28.28125 29.84375 26.71875 29.84375 25.078125 C 29.84375 23.984375 29.6875 22.96875 29.53125 21.953125 L 20.46875 21.953125 C 20.546875 21.40625 20.703125 20.9375 20.859375 20.390625 L 28.984375 20.390625 C 28.828125 19.84375 28.59375 19.296875 28.359375 18.828125 L 21.484375 18.828125 C 21.71875 18.28125 22.03125 17.8125 22.34375 17.265625 L 27.578125 17.265625 C 27.265625 16.71875 26.875 16.171875 26.40625 15.703125 L 23.515625 15.703125 C 23.984375 15.15625 24.453125 14.6875 25 14.21875 C 22.421875 11.796875 18.90625 10.390625 15.078125 10.390625 C 15.078125 10.390625 15 10.390625 15 10.390625 "/>
<path style=" stroke:none;fill-rule:nonzero;fill:rgb(79.607843%,12.54902%,14.901961%);fill-opacity:1;" d="M 15.15625 39.765625 C 18.984375 39.765625 22.421875 38.28125 25.078125 35.9375 C 25.625 35.46875 26.09375 34.921875 26.5625 34.375 L 23.515625 34.375 C 23.125 33.90625 22.734375 33.359375 22.421875 32.890625 L 27.65625 32.890625 C 27.96875 32.421875 28.28125 31.875 28.515625 31.328125 L 21.5625 31.328125 C 21.328125 30.859375 21.09375 30.3125 20.9375 29.765625 L 29.0625 29.765625 C 29.53125 28.28125 29.84375 26.71875 29.84375 25.078125 C 29.84375 23.984375 29.6875 22.96875 29.53125 21.953125 L 20.46875 21.953125 C 20.546875 21.40625 20.703125 20.9375 20.859375 20.390625 L 28.984375 20.390625 C 28.828125 19.84375 28.59375 19.296875 28.359375 18.828125 L 21.484375 18.828125 C 21.71875 18.28125 22.03125 17.8125 22.34375 17.265625 L 27.578125 17.265625 C 27.265625 16.71875 26.875 16.171875 26.40625 15.703125 L 23.515625 15.703125 C 23.984375 15.15625 24.453125 14.6875 25 14.21875 C 22.421875 11.796875 18.90625 10.390625 15.078125 10.390625 C 15.078125 10.390625 15 10.390625 15 10.390625 "/>
<path style=" stroke:none;fill-rule:nonzero;fill:rgb(100%,100%,100%);fill-opacity:1;" d="M 20.390625 28.75 L 20.625 27.421875 C 20.546875 27.421875 20.390625 27.5 20.234375 27.5 C 19.6875 27.5 19.609375 27.1875 19.6875 27.03125 L 20.15625 24.296875 L 21.015625 24.296875 L 21.25 22.8125 L 20.46875 22.8125 L 20.625 21.875 L 19.0625 21.875 C 19.0625 21.875 18.125 27.03125 18.125 27.65625 C 18.125 28.59375 18.671875 28.984375 19.375 28.984375 C 19.84375 28.984375 20.234375 28.828125 20.390625 28.75 Z M 20.390625 28.75 "/>
<path style=" stroke:none;fill-rule:nonzero;fill:rgb(100%,100%,100%);fill-opacity:1;" d="M 20.9375 26.25 C 20.9375 28.4375 22.421875 28.984375 23.671875 28.984375 C 24.84375 28.984375 25.3125 28.75 25.3125 28.75 L 25.625 27.265625 C 25.625 27.265625 24.765625 27.65625 23.984375 27.65625 C 22.265625 27.65625 22.578125 26.40625 22.578125 26.40625 L 25.78125 26.40625 C 25.78125 26.40625 26.015625 25.390625 26.015625 25 C 26.015625 23.984375 25.46875 22.734375 23.75 22.734375 C 22.109375 22.578125 20.9375 24.296875 20.9375 26.25 Z M 23.671875 23.984375 C 24.53125 23.984375 24.375 25 24.375 25.078125 L 22.65625 25.078125 C 22.65625 25 22.8125 23.984375 23.671875 23.984375 Z M 23.671875 23.984375 "/>
<path style=" stroke:none;fill-rule:nonzero;fill:rgb(100%,100%,100%);fill-opacity:1;" d="M 33.59375 28.75 L 33.90625 27.03125 C 33.90625 27.03125 33.125 27.421875 32.578125 27.421875 C 31.484375 27.421875 31.015625 26.5625 31.015625 25.625 C 31.015625 23.75 31.953125 22.734375 33.046875 22.734375 C 33.828125 22.734375 34.453125 23.203125 34.453125 23.203125 L 34.6875 21.5625 C 34.6875 21.5625 33.75 21.171875 32.890625 21.171875 C 31.09375 21.171875 29.296875 22.734375 29.296875 25.703125 C 29.296875 27.65625 30.234375 28.984375 32.109375 28.984375 C 32.734375 28.984375 33.59375 28.75 33.59375 28.75 Z M 33.59375 28.75 "/>
<path style=" stroke:none;fill-rule:nonzero;fill:rgb(100%,100%,100%);fill-opacity:1;" d="M 11.796875 22.578125 C 10.703125 22.578125 9.921875 22.890625 9.921875 22.890625 L 9.6875 24.21875 C 9.6875 24.21875 10.390625 23.90625 11.40625 23.90625 C 11.953125 23.90625 12.421875 23.984375 12.421875 24.453125 C 12.421875 24.765625 12.34375 24.84375 12.34375 24.84375 C 12.34375 24.84375 11.875 24.84375 11.640625 24.84375 C 10.3125 24.84375 8.828125 25.390625 8.828125 27.1875 C 8.828125 28.59375 9.765625 28.90625 10.3125 28.90625 C 11.40625 28.90625 11.875 28.203125 11.953125 28.203125 L 11.875 28.828125 L 13.28125 28.828125 L 13.90625 24.53125 C 13.90625 22.65625 12.34375 22.578125 11.796875 22.578125 Z M 12.109375 26.09375 C 12.109375 26.328125 11.953125 27.578125 11.015625 27.578125 C 10.546875 27.578125 10.390625 27.1875 10.390625 26.953125 C 10.390625 26.5625 10.625 26.015625 11.796875 26.015625 C 12.03125 26.09375 12.109375 26.09375 12.109375 26.09375 Z M 12.109375 26.09375 "/>
<path style=" stroke:none;fill-rule:nonzero;fill:rgb(100%,100%,100%);fill-opacity:1;" d="M 15.390625 28.90625 C 15.78125 28.90625 17.734375 28.984375 17.734375 26.875 C 17.734375 24.921875 15.859375 25.3125 15.859375 24.53125 C 15.859375 24.140625 16.171875 23.984375 16.71875 23.984375 C 16.953125 23.984375 17.8125 24.0625 17.8125 24.0625 L 18.046875 22.65625 C 18.046875 22.65625 17.5 22.5 16.5625 22.5 C 15.390625 22.5 14.21875 22.96875 14.21875 24.53125 C 14.21875 26.328125 16.171875 26.171875 16.171875 26.875 C 16.171875 27.34375 15.625 27.421875 15.234375 27.421875 C 14.53125 27.421875 13.828125 27.1875 13.828125 27.1875 L 13.59375 28.59375 C 13.671875 28.75 14.0625 28.90625 15.390625 28.90625 Z M 15.390625 28.90625 "/>
<path style=" stroke:none;fill-rule:nonzero;fill:rgb(100%,100%,100%);fill-opacity:1;" d="M 46.5625 21.328125 L 46.25 23.4375 C 46.25 23.4375 45.625 22.65625 44.765625 22.65625 C 43.359375 22.65625 42.109375 24.375 42.109375 26.40625 C 42.109375 27.65625 42.734375 28.984375 44.0625 28.984375 C 45 28.984375 45.546875 28.359375 45.546875 28.359375 L 45.46875 28.90625 L 47.03125 28.90625 L 48.203125 21.40625 Z M 45.859375 25.46875 C 45.859375 26.328125 45.46875 27.421875 44.609375 27.421875 C 44.0625 27.421875 43.75 26.953125 43.75 26.171875 C 43.75 24.921875 44.296875 24.140625 45 24.140625 C 45.546875 24.140625 45.859375 24.53125 45.859375 25.46875 Z M 45.859375 25.46875 "/>
<path style=" stroke:none;fill-rule:nonzero;fill:rgb(100%,100%,100%);fill-opacity:1;" d="M 3.28125 28.828125 L 4.21875 23.203125 L 4.375 28.828125 L 5.46875 28.828125 L 7.5 23.203125 L 6.640625 28.828125 L 8.28125 28.828125 L 9.53125 21.328125 L 6.953125 21.328125 L 5.390625 25.9375 L 5.3125 21.328125 L 3.046875 21.328125 L 1.796875 28.828125 Z M 3.28125 28.828125 "/>
<path style=" stroke:none;fill-rule:nonzero;fill:rgb(100%,100%,100%);fill-opacity:1;" d="M 27.5 28.828125 C 27.96875 26.25 28.046875 24.140625 29.140625 24.53125 C 29.296875 23.515625 29.53125 23.125 29.6875 22.734375 C 29.6875 22.734375 29.609375 22.734375 29.375 22.734375 C 28.671875 22.734375 28.125 23.671875 28.125 23.671875 L 28.28125 22.8125 L 26.796875 22.8125 L 25.78125 28.90625 L 27.5 28.90625 Z M 27.5 28.828125 "/>
<path style=" stroke:none;fill-rule:nonzero;fill:rgb(100%,100%,100%);fill-opacity:1;" d="M 37.1875 22.578125 C 36.09375 22.578125 35.3125 22.890625 35.3125 22.890625 L 35.078125 24.21875 C 35.078125 24.21875 35.78125 23.90625 36.796875 23.90625 C 37.34375 23.90625 37.8125 23.984375 37.8125 24.453125 C 37.8125 24.765625 37.734375 24.84375 37.734375 24.84375 C 37.734375 24.84375 37.265625 24.84375 37.03125 24.84375 C 35.703125 24.84375 34.21875 25.390625 34.21875 27.1875 C 34.21875 28.59375 35.15625 28.90625 35.703125 28.90625 C 36.796875 28.90625 37.265625 28.203125 37.34375 28.203125 L 37.265625 28.828125 L 38.671875 28.828125 L 39.296875 24.53125 C 39.375 22.65625 37.734375 22.578125 37.1875 22.578125 Z M 37.578125 26.09375 C 37.578125 26.328125 37.421875 27.578125 36.484375 27.578125 C 36.015625 27.578125 35.859375 27.1875 35.859375 26.953125 C 35.859375 26.5625 36.09375 26.015625 37.265625 26.015625 C 37.5 26.09375 37.5 26.09375 37.578125 26.09375 Z M 37.578125 26.09375 "/>
<path style=" stroke:none;fill-rule:nonzero;fill:rgb(100%,100%,100%);fill-opacity:1;" d="M 40.625 28.828125 C 41.09375 26.25 41.171875 24.140625 42.265625 24.53125 C 42.421875 23.515625 42.65625 23.125 42.8125 22.734375 C 42.8125 22.734375 42.734375 22.734375 42.5 22.734375 C 41.796875 22.734375 41.25 23.671875 41.25 23.671875 L 41.40625 22.8125 L 39.921875 22.8125 L 38.90625 28.90625 L 40.625 28.90625 Z M 40.625 28.828125 "/>
<path style=" stroke:none;fill-rule:nonzero;fill:rgb(86.27451%,89.803922%,89.803922%);fill-opacity:1;" d="M 17.96875 27.65625 C 17.96875 28.59375 18.515625 28.984375 19.21875 28.984375 C 19.765625 28.984375 20.234375 28.828125 20.390625 28.75 L 20.625 27.421875 C 20.546875 27.421875 20.390625 27.5 20.234375 27.5 C 19.6875 27.5 19.609375 27.1875 19.6875 27.03125 L 20.15625 24.296875 L 21.015625 24.296875 L 21.25 22.8125 L 20.46875 22.8125 L 20.625 21.875 "/>
<path style=" stroke:none;fill-rule:nonzero;fill:rgb(86.27451%,89.803922%,89.803922%);fill-opacity:1;" d="M 21.71875 26.25 C 21.71875 28.4375 22.421875 28.984375 23.671875 28.984375 C 24.84375 28.984375 25.3125 28.75 25.3125 28.75 L 25.625 27.265625 C 25.625 27.265625 24.765625 27.65625 23.984375 27.65625 C 22.265625 27.65625 22.578125 26.40625 22.578125 26.40625 L 25.78125 26.40625 C 25.78125 26.40625 26.015625 25.390625 26.015625 25 C 26.015625 23.984375 25.46875 22.734375 23.75 22.734375 C 22.109375 22.578125 21.71875 24.296875 21.71875 26.25 Z M 23.671875 23.984375 C 24.53125 23.984375 24.6875 25 24.6875 25.078125 L 22.65625 25.078125 C 22.65625 25 22.8125 23.984375 23.671875 23.984375 Z M 23.671875 23.984375 "/>
<path style=" stroke:none;fill-rule:nonzero;fill:rgb(86.27451%,89.803922%,89.803922%);fill-opacity:1;" d="M 33.59375 28.75 L 33.90625 27.03125 C 33.90625 27.03125 33.125 27.421875 32.578125 27.421875 C 31.484375 27.421875 31.015625 26.5625 31.015625 25.625 C 31.015625 23.75 31.953125 22.734375 33.046875 22.734375 C 33.828125 22.734375 34.453125 23.203125 34.453125 23.203125 L 34.6875 21.5625 C 34.6875 21.5625 33.75 21.171875 32.890625 21.171875 C 31.09375 21.171875 30.078125 22.734375 30.078125 25.703125 C 30.078125 27.65625 30.234375 28.984375 32.109375 28.984375 C 32.734375 28.984375 33.59375 28.75 33.59375 28.75 Z M 33.59375 28.75 "/>
<path style=" stroke:none;fill-rule:nonzero;fill:rgb(86.27451%,89.803922%,89.803922%);fill-opacity:1;" d="M 9.6875 24.296875 C 9.6875 24.296875 10.390625 23.984375 11.40625 23.984375 C 11.953125 23.984375 12.421875 24.0625 12.421875 24.53125 C 12.421875 24.84375 12.34375 24.921875 12.34375 24.921875 C 12.34375 24.921875 11.875 24.921875 11.640625 24.921875 C 10.3125 24.921875 8.828125 25.46875 8.828125 27.265625 C 8.828125 28.671875 9.765625 28.984375 10.3125 28.984375 C 11.40625 28.984375 11.875 28.28125 11.953125 28.28125 L 11.875 28.90625 L 13.28125 28.90625 L 13.90625 24.609375 C 13.90625 22.8125 12.34375 22.734375 11.71875 22.734375 M 12.890625 26.09375 C 12.890625 26.328125 11.953125 27.578125 11.015625 27.578125 C 10.546875 27.578125 10.390625 27.1875 10.390625 26.953125 C 10.390625 26.5625 10.625 26.015625 11.796875 26.015625 C 12.03125 26.09375 12.890625 26.09375 12.890625 26.09375 Z M 12.890625 26.09375 "/>
<path style=" stroke:none;fill-rule:nonzero;fill:rgb(86.27451%,89.803922%,89.803922%);fill-opacity:1;" d="M 13.671875 28.75 C 13.671875 28.75 14.140625 28.90625 15.46875 28.90625 C 15.859375 28.90625 17.8125 28.984375 17.8125 26.875 C 17.8125 24.921875 15.9375 25.3125 15.9375 24.53125 C 15.9375 24.140625 16.25 23.984375 16.796875 23.984375 C 17.03125 23.984375 17.890625 24.0625 17.890625 24.0625 L 18.125 22.65625 C 18.125 22.65625 17.578125 22.5 16.640625 22.5 C 15.46875 22.5 15.078125 22.96875 15.078125 24.53125 C 15.078125 26.328125 16.25 26.171875 16.25 26.875 C 16.25 27.34375 15.703125 27.421875 15.3125 27.421875 "/>
<path style=" stroke:none;fill-rule:nonzero;fill:rgb(86.27451%,89.803922%,89.803922%);fill-opacity:1;" d="M 46.25 23.4375 C 46.25 23.4375 45.625 22.65625 44.765625 22.65625 C 43.359375 22.65625 42.890625 24.375 42.890625 26.40625 C 42.890625 27.65625 42.734375 28.984375 44.0625 28.984375 C 45 28.984375 45.546875 28.359375 45.546875 28.359375 L 45.46875 28.90625 L 47.03125 28.90625 L 48.203125 21.40625 M 46.171875 25.46875 C 46.171875 26.328125 45.46875 27.421875 44.609375 27.421875 C 44.0625 27.421875 43.75 26.953125 43.75 26.171875 C 43.75 24.921875 44.296875 24.140625 45 24.140625 C 45.546875 24.140625 46.171875 24.53125 46.171875 25.46875 Z M 46.171875 25.46875 "/>
<path style=" stroke:none;fill-rule:nonzero;fill:rgb(86.27451%,89.803922%,89.803922%);fill-opacity:1;" d="M 3.28125 28.828125 L 4.21875 23.203125 L 4.375 28.828125 L 5.46875 28.828125 L 7.5 23.203125 L 6.640625 28.828125 L 8.28125 28.828125 L 9.53125 21.328125 L 7.578125 21.328125 L 5.390625 25.9375 L 5.3125 21.328125 L 4.453125 21.328125 L 1.796875 28.828125 Z M 3.28125 28.828125 "/>
<path style=" stroke:none;fill-rule:nonzero;fill:rgb(86.27451%,89.803922%,89.803922%);fill-opacity:1;" d="M 25.859375 28.828125 L 27.5 28.828125 C 27.96875 26.25 28.046875 24.140625 29.140625 24.53125 C 29.296875 23.515625 29.53125 23.125 29.6875 22.734375 C 29.6875 22.734375 29.609375 22.734375 29.375 22.734375 C 28.671875 22.734375 28.125 23.671875 28.125 23.671875 L 28.28125 22.8125 "/>
<path style=" stroke:none;fill-rule:nonzero;fill:rgb(86.27451%,89.803922%,89.803922%);fill-opacity:1;" d="M 35.078125 24.296875 C 35.078125 24.296875 35.78125 23.984375 36.796875 23.984375 C 37.34375 23.984375 37.8125 24.0625 37.8125 24.53125 C 37.8125 24.84375 37.734375 24.921875 37.734375 24.921875 C 37.734375 24.921875 37.265625 24.921875 37.03125 24.921875 C 35.703125 24.921875 34.21875 25.46875 34.21875 27.265625 C 34.21875 28.671875 35.15625 28.984375 35.703125 28.984375 C 36.796875 28.984375 37.265625 28.28125 37.34375 28.28125 L 37.265625 28.90625 L 38.671875 28.90625 L 39.296875 24.609375 C 39.296875 22.8125 37.734375 22.734375 37.109375 22.734375 M 38.28125 26.09375 C 38.28125 26.328125 37.34375 27.578125 36.40625 27.578125 C 35.9375 27.578125 35.78125 27.1875 35.78125 26.953125 C 35.78125 26.5625 36.015625 26.015625 37.1875 26.015625 C 37.5 26.09375 38.28125 26.09375 38.28125 26.09375 Z M 38.28125 26.09375 "/>
<path style=" stroke:none;fill-rule:nonzero;fill:rgb(86.27451%,89.803922%,89.803922%);fill-opacity:1;" d="M 38.984375 28.828125 L 40.625 28.828125 C 41.09375 26.25 41.171875 24.140625 42.265625 24.53125 C 42.421875 23.515625 42.65625 23.125 42.8125 22.734375 C 42.8125 22.734375 42.734375 22.734375 42.5 22.734375 C 41.796875 22.734375 41.25 23.671875 41.25 23.671875 L 41.40625 22.8125 "/>
</g>
</svg>
