<?xml version="1.0" encoding="UTF-8"?>
<svg xmlns="http://www.w3.org/2000/svg" xmlns:xlink="http://www.w3.org/1999/xlink" width="18px" height="21px" viewBox="0 0 18 20" version="1.1">
<g id="surface1">
<path style=" stroke:none;fill-rule:nonzero;fill:rgb(0%,0%,0%);fill-opacity:1;" d="M 9 7.917969 C 7.816406 7.917969 6.855469 8.851562 6.859375 10 C 6.859375 11.152344 7.816406 12.082031 9 12.082031 C 10.183594 12.082031 11.144531 11.152344 11.144531 10 C 11.144531 8.847656 10.183594 7.917969 9 7.917969 Z M 14.011719 6.316406 C 13.789062 5.769531 13.347656 5.339844 12.789062 5.125 C 11.945312 4.804688 9.9375 4.875 9 4.875 C 8.0625 4.875 6.058594 4.800781 5.210938 5.125 C 4.652344 5.339844 4.210938 5.769531 3.988281 6.316406 C 3.65625 7.136719 3.730469 9.089844 3.730469 10 C 3.730469 10.910156 3.65625 12.863281 3.992188 13.683594 C 4.210938 14.226562 4.652344 14.660156 5.210938 14.871094 C 6.054688 15.195312 8.066406 15.125 9 15.125 C 9.9375 15.125 11.945312 15.199219 12.789062 14.871094 C 13.347656 14.660156 13.792969 14.226562 14.011719 13.683594 C 14.347656 12.863281 14.269531 10.910156 14.269531 10 C 14.269531 9.089844 14.347656 7.136719 14.011719 6.316406 Z M 9 13.203125 C 7.179688 13.203125 5.707031 11.769531 5.707031 10 C 5.707031 8.230469 7.179688 6.796875 9 6.796875 C 10.820312 6.796875 12.292969 8.230469 12.292969 10 C 12.296875 10.851562 11.949219 11.664062 11.332031 12.265625 C 10.710938 12.867188 9.875 13.203125 9 13.203125 Z M 12.429688 7.410156 C 12.003906 7.410156 11.660156 7.074219 11.660156 6.664062 C 11.660156 6.25 12.003906 5.914062 12.429688 5.914062 C 12.855469 5.914062 13.199219 6.25 13.199219 6.664062 C 13.199219 6.859375 13.121094 7.050781 12.976562 7.191406 C 12.832031 7.332031 12.636719 7.410156 12.433594 7.410156 Z M 16.070312 1.25 L 1.929688 1.25 C 0.863281 1.25 0 2.089844 0 3.125 L 0 16.875 C 0 17.910156 0.863281 18.75 1.929688 18.75 L 16.070312 18.75 C 17.136719 18.75 18 17.910156 18 16.875 L 18 3.125 C 18 2.089844 17.136719 1.25 16.070312 1.25 Z M 15.382812 12.578125 C 15.332031 13.578125 15.097656 14.464844 14.34375 15.195312 C 13.59375 15.925781 12.679688 16.15625 11.652344 16.203125 C 10.59375 16.261719 7.410156 16.261719 6.347656 16.203125 C 5.320312 16.15625 4.410156 15.925781 3.65625 15.195312 C 2.90625 14.464844 2.667969 13.578125 2.617188 12.578125 C 2.558594 11.546875 2.558594 8.453125 2.617188 7.421875 C 2.671875 6.421875 2.902344 5.535156 3.65625 4.804688 C 4.410156 4.074219 5.324219 3.84375 6.347656 3.796875 C 7.410156 3.738281 10.59375 3.738281 11.652344 3.796875 C 12.683594 3.847656 13.59375 4.078125 14.34375 4.808594 C 15.09375 5.539062 15.335938 6.425781 15.382812 7.425781 C 15.445312 8.453125 15.445312 11.546875 15.382812 12.578125 Z M 15.382812 12.578125 "/>
</g>
</svg>
