<?xml version="1.0" encoding="UTF-8"?>
<svg xmlns="http://www.w3.org/2000/svg" xmlns:xlink="http://www.w3.org/1999/xlink" width="50pt" height="25pt" viewBox="0 0 50 25" version="1.1">
<g id="surface1">
<path style=" stroke:none;fill-rule:nonzero;fill:rgb(7.058824%,22.352941%,51.764706%);fill-opacity:1;" d="M 24.378906 11.390625 C 24.378906 12.070312 24.097656 12.621094 23.53125 13.039062 C 22.964844 13.457031 22.171875 13.667969 21.160156 13.667969 L 20.597656 13.667969 L 20.164062 15.53125 L 18.679688 15.53125 L 20.003906 9.800781 L 22.0625 9.800781 C 22.4375 9.800781 22.761719 9.828125 23.039062 9.878906 C 23.320312 9.929688 23.558594 10.019531 23.761719 10.140625 C 23.957031 10.261719 24.113281 10.429688 24.21875 10.632812 C 24.324219 10.839844 24.378906 11.089844 24.378906 11.390625 Z M 22.800781 11.53125 C 22.800781 11.308594 22.71875 11.144531 22.554688 11.03125 C 22.390625 10.921875 22.152344 10.871094 21.832031 10.871094 L 21.238281 10.871094 L 20.84375 12.585938 L 21.375 12.585938 C 21.824219 12.585938 22.175781 12.496094 22.421875 12.3125 C 22.675781 12.128906 22.796875 11.867188 22.796875 11.527344 Z M 27.109375 15.078125 L 26.792969 15.285156 C 26.667969 15.367188 26.554688 15.429688 26.449219 15.476562 C 26.320312 15.53125 26.183594 15.578125 26.046875 15.609375 C 25.917969 15.640625 25.742188 15.65625 25.523438 15.65625 C 25.164062 15.65625 24.871094 15.558594 24.640625 15.355469 C 24.414062 15.152344 24.300781 14.890625 24.300781 14.5625 C 24.300781 14.222656 24.378906 13.9375 24.542969 13.695312 C 24.703125 13.453125 24.945312 13.265625 25.261719 13.128906 C 25.5625 12.992188 25.917969 12.894531 26.324219 12.835938 L 27.660156 12.703125 L 27.679688 12.628906 C 27.6875 12.597656 27.691406 12.558594 27.691406 12.515625 C 27.699219 12.347656 27.597656 12.191406 27.441406 12.132812 C 27.277344 12.058594 27.019531 12.023438 26.683594 12.023438 C 26.457031 12.023438 26.207031 12.058594 25.929688 12.136719 L 25.308594 12.328125 L 25.179688 12.328125 L 25.390625 11.300781 C 25.550781 11.261719 25.804688 11.21875 26.140625 11.164062 C 26.472656 11.109375 26.816406 11.085938 27.152344 11.085938 C 27.828125 11.085938 28.328125 11.171875 28.640625 11.351562 C 28.960938 11.527344 29.117188 11.804688 29.117188 12.175781 C 29.117188 12.242188 29.113281 12.308594 29.105469 12.375 C 29.097656 12.449219 29.085938 12.519531 29.066406 12.589844 L 28.390625 15.53125 L 27.015625 15.53125 Z M 27.476562 13.496094 L 26.777344 13.570312 C 26.589844 13.589844 26.40625 13.632812 26.226562 13.691406 C 26.070312 13.75 25.949219 13.832031 25.867188 13.929688 C 25.785156 14.035156 25.746094 14.167969 25.746094 14.339844 C 25.746094 14.488281 25.796875 14.589844 25.910156 14.652344 C 26.019531 14.71875 26.175781 14.746094 26.386719 14.746094 C 26.523438 14.746094 26.667969 14.714844 26.828125 14.652344 C 26.980469 14.585938 27.128906 14.507812 27.265625 14.410156 Z M 31.242188 17.121094 L 29.714844 17.121094 L 30.820312 15.449219 L 30.109375 11.214844 L 31.527344 11.214844 L 31.902344 14.046875 L 33.546875 11.214844 L 35.007812 11.214844 Z M 31.242188 17.121094 "/>
<path style=" stroke:none;fill-rule:nonzero;fill:rgb(0%,61.568627%,88.627451%);fill-opacity:1;" d="M 40.550781 11.390625 C 40.550781 12.070312 40.269531 12.621094 39.703125 13.039062 C 39.136719 13.457031 38.347656 13.667969 37.332031 13.667969 L 36.769531 13.667969 L 36.335938 15.53125 L 34.851562 15.53125 L 36.171875 9.804688 L 38.234375 9.804688 C 38.609375 9.804688 38.933594 9.832031 39.210938 9.882812 C 39.488281 9.933594 39.730469 10.023438 39.933594 10.144531 C 40.125 10.265625 40.285156 10.433594 40.390625 10.636719 C 40.496094 10.84375 40.550781 11.089844 40.550781 11.386719 Z M 38.96875 11.53125 C 38.96875 11.308594 38.886719 11.144531 38.722656 11.03125 C 38.558594 10.921875 38.320312 10.871094 38.003906 10.871094 L 37.40625 10.871094 L 37.011719 12.585938 L 37.542969 12.585938 C 37.992188 12.585938 38.34375 12.496094 38.59375 12.3125 C 38.84375 12.128906 38.96875 11.867188 38.96875 11.527344 Z M 43.28125 15.078125 L 42.964844 15.285156 C 42.839844 15.367188 42.726562 15.429688 42.625 15.476562 C 42.492188 15.53125 42.355469 15.578125 42.21875 15.609375 C 42.089844 15.640625 41.917969 15.65625 41.695312 15.65625 C 41.335938 15.65625 41.042969 15.558594 40.816406 15.355469 C 40.585938 15.152344 40.472656 14.890625 40.472656 14.5625 C 40.472656 14.222656 40.554688 13.9375 40.714844 13.695312 C 40.875 13.453125 41.117188 13.265625 41.4375 13.128906 C 41.734375 12.992188 42.089844 12.894531 42.5 12.835938 L 43.835938 12.703125 L 43.851562 12.628906 C 43.863281 12.597656 43.863281 12.558594 43.863281 12.515625 C 43.875 12.347656 43.773438 12.191406 43.613281 12.132812 C 43.449219 12.058594 43.191406 12.023438 42.859375 12.023438 C 42.628906 12.023438 42.378906 12.058594 42.101562 12.136719 L 41.480469 12.328125 L 41.355469 12.328125 L 41.5625 11.300781 C 41.722656 11.261719 41.980469 11.21875 42.3125 11.164062 C 42.644531 11.109375 42.988281 11.085938 43.324219 11.085938 C 44 11.085938 44.5 11.171875 44.816406 11.351562 C 45.132812 11.527344 45.289062 11.804688 45.289062 12.175781 C 45.289062 12.242188 45.285156 12.308594 45.277344 12.375 C 45.269531 12.449219 45.257812 12.519531 45.242188 12.589844 L 44.5625 15.53125 L 43.183594 15.53125 Z M 43.648438 13.496094 L 42.953125 13.570312 C 42.765625 13.589844 42.578125 13.632812 42.398438 13.691406 C 42.242188 13.75 42.121094 13.832031 42.039062 13.929688 C 41.957031 14.035156 41.917969 14.167969 41.917969 14.339844 C 41.917969 14.488281 41.972656 14.589844 42.082031 14.652344 C 42.191406 14.71875 42.347656 14.746094 42.558594 14.746094 C 42.699219 14.746094 42.839844 14.714844 43 14.652344 C 43.15625 14.585938 43.300781 14.507812 43.4375 14.410156 Z M 48.597656 9.546875 L 47.214844 15.535156 L 45.820312 15.535156 L 47.203125 9.546875 Z M 48.597656 9.546875 "/>
<path style=" stroke:none;fill-rule:nonzero;fill:rgb(0%,61.176471%,87.058824%);fill-opacity:1;" d="M 16.796875 10.203125 C 16.796875 11.835938 16.117188 13.152344 14.765625 14.152344 C 13.410156 15.152344 11.519531 15.652344 9.089844 15.652344 L 7.746094 15.652344 L 6.714844 20.117188 L 3.164062 20.117188 L 6.445312 6.414062 L 11.253906 6.414062 C 12.148438 6.414062 12.925781 6.476562 13.597656 6.597656 C 14.261719 6.722656 14.839844 6.933594 15.324219 7.234375 C 15.800781 7.535156 16.167969 7.929688 16.417969 8.410156 C 16.667969 8.886719 16.796875 9.488281 16.796875 10.203125 Z M 16.796875 10.203125 "/>
<path style=" stroke:none;fill-rule:nonzero;fill:rgb(100%,100%,100%);fill-opacity:1;" d="M 6.835938 20.261719 L 2.980469 20.261719 L 6.332031 6.265625 L 11.253906 6.265625 C 12.152344 6.265625 12.949219 6.328125 13.621094 6.449219 C 14.300781 6.574219 14.898438 6.796875 15.398438 7.105469 C 15.894531 7.417969 16.285156 7.832031 16.546875 8.335938 C 16.808594 8.835938 16.941406 9.460938 16.941406 10.199219 C 16.941406 11.871094 16.238281 13.242188 14.851562 14.269531 C 13.476562 15.285156 11.539062 15.796875 9.085938 15.796875 L 7.859375 15.796875 Z M 3.351562 19.96875 L 6.597656 19.96875 L 7.628906 15.503906 L 9.089844 15.503906 C 11.476562 15.503906 13.359375 15.007812 14.675781 14.03125 C 15.332031 13.546875 15.832031 12.980469 16.15625 12.347656 C 16.480469 11.714844 16.644531 10.992188 16.644531 10.203125 C 16.644531 9.511719 16.523438 8.929688 16.285156 8.472656 C 16.046875 8.015625 15.695312 7.640625 15.242188 7.355469 C 14.777344 7.066406 14.210938 6.859375 13.566406 6.738281 C 12.914062 6.621094 12.132812 6.558594 11.25 6.558594 L 6.5625 6.558594 Z M 3.351562 19.96875 "/>
<path style=" stroke:none;fill-rule:nonzero;fill:rgb(5.882353%,20.784314%,44.705882%);fill-opacity:1;" d="M 15.21875 8.675781 C 15.21875 10.308594 14.539062 11.625 13.1875 12.625 C 11.835938 13.625 9.945312 14.125 7.511719 14.125 L 6.167969 14.125 L 5.140625 18.589844 L 1.589844 18.589844 L 4.75 4.882812 L 9.675781 4.882812 C 10.570312 4.882812 11.351562 4.949219 12.019531 5.070312 C 12.6875 5.191406 13.261719 5.40625 13.746094 5.707031 C 14.222656 6.007812 14.589844 6.398438 14.84375 6.878906 C 15.09375 7.359375 15.21875 7.957031 15.21875 8.675781 Z M 15.21875 8.675781 "/>
<path style=" stroke:none;fill-rule:nonzero;fill:rgb(100%,100%,100%);fill-opacity:1;" d="M 5.253906 18.734375 L 1.402344 18.734375 L 4.632812 4.738281 L 9.675781 4.738281 C 10.574219 4.738281 11.371094 4.800781 12.042969 4.921875 C 12.722656 5.050781 13.320312 5.269531 13.820312 5.578125 C 14.320312 5.890625 14.707031 6.304688 14.96875 6.808594 C 15.234375 7.308594 15.363281 7.9375 15.363281 8.675781 C 15.363281 10.347656 14.664062 11.71875 13.273438 12.742188 C 11.898438 13.757812 9.960938 14.269531 7.511719 14.269531 L 6.28125 14.269531 Z M 1.773438 18.441406 L 5.023438 18.441406 L 6.054688 13.976562 L 7.511719 13.976562 C 9.898438 13.976562 11.78125 13.480469 13.101562 12.503906 C 13.753906 12.019531 14.253906 11.453125 14.578125 10.820312 C 14.90625 10.1875 15.070312 9.460938 15.070312 8.675781 C 15.070312 7.984375 14.945312 7.402344 14.707031 6.941406 C 14.46875 6.484375 14.121094 6.113281 13.664062 5.824219 C 13.199219 5.535156 12.636719 5.328125 11.988281 5.210938 C 11.335938 5.089844 10.554688 5.027344 9.671875 5.027344 L 4.863281 5.027344 Z M 11.570312 9.164062 C 11.542969 9.582031 11.457031 9.890625 11.203125 10.246094 C 10.949219 10.601562 10.648438 10.832031 10.25 11.023438 C 10.007812 11.136719 9.757812 11.210938 9.492188 11.246094 C 9.230469 11.28125 8.917969 11.300781 8.550781 11.300781 L 6.785156 11.300781 L 7.773438 7.761719 L 9.375 7.761719 C 9.785156 7.761719 10.113281 7.765625 10.363281 7.824219 C 10.609375 7.878906 10.8125 7.953125 10.964844 8.042969 C 11.175781 8.167969 11.347656 8.320312 11.445312 8.515625 C 11.570312 8.742188 11.582031 8.890625 11.570312 9.164062 Z M 11.570312 9.164062 "/>
</g>
</svg>
