<?xml version="1.0" encoding="UTF-8"?>
<svg xmlns="http://www.w3.org/2000/svg" xmlns:xlink="http://www.w3.org/1999/xlink" width="18px" height="px" viewBox="0 0 18 20" version="1.1">
<g id="surface1">
<path style=" stroke:none;fill-rule:nonzero;fill:rgb(0%,0%,0%);fill-opacity:1;" d="M 18 3.125 L 18 16.875 C 18 17.910156 17.136719 18.75 16.070312 18.75 L 6.203125 18.75 C 6.597656 18.109375 7.105469 17.1875 7.304688 16.433594 C 7.425781 15.984375 7.917969 14.152344 7.917969 14.152344 C 8.242188 14.75 9.179688 15.253906 10.179688 15.253906 C 13.160156 15.253906 15.300781 12.59375 15.300781 9.289062 C 15.300781 6.121094 12.640625 3.75 9.21875 3.75 C 4.957031 3.75 2.699219 6.527344 2.699219 9.554688 C 2.699219 10.960938 3.472656 12.710938 4.699219 13.269531 C 4.890625 13.355469 4.984375 13.316406 5.03125 13.140625 C 5.0625 13.007812 5.230469 12.355469 5.304688 12.054688 C 5.328125 11.957031 5.316406 11.875 5.234375 11.78125 C 4.828125 11.300781 4.5 10.417969 4.5 9.59375 C 4.5 7.476562 6.148438 5.429688 8.957031 5.429688 C 11.378906 5.429688 13.078125 7.035156 13.078125 9.332031 C 13.078125 11.925781 11.730469 13.722656 9.976562 13.722656 C 9.007812 13.722656 8.285156 12.945312 8.515625 11.988281 C 8.792969 10.847656 9.328125 9.617188 9.328125 8.792969 C 9.328125 6.722656 6.296875 7.007812 6.296875 9.769531 C 6.296875 10.617188 6.589844 11.195312 6.589844 11.195312 C 5.328125 16.382812 5.140625 16.449219 5.398438 18.71875 L 5.488281 18.75 L 1.929688 18.75 C 0.863281 18.75 0 17.910156 0 16.875 L 0 3.125 C 0 2.089844 0.863281 1.25 1.929688 1.25 L 16.070312 1.25 C 17.136719 1.25 18 2.089844 18 3.125 Z M 18 3.125 "/>
</g>
</svg>
