<?xml version="1.0" encoding="UTF-8"?>
<svg xmlns="http://www.w3.org/2000/svg" xmlns:xlink="http://www.w3.org/1999/xlink" width="50px" height="50px" viewBox="0 0 50 50" version="1.1">
<defs>
<filter id="alpha" filterUnits="objectBoundingBox" x="0%" y="0%" width="100%" height="100%">
  <feColorMatrix type="matrix" in="SourceGraphic" values="0 0 0 0 1 0 0 0 0 1 0 0 0 0 1 0 0 0 1 0"/>
</filter>
<mask id="mask0">
  <g filter="url(#alpha)">
<rect x="0" y="0" width="50" height="50" style="fill:rgb(0%,0%,0%);fill-opacity:0.14902;stroke:none;"/>
  </g>
</mask>
<clipPath id="clip1">
  <rect x="0" y="0" width="50" height="50"/>
</clipPath>
<g id="surface5" clip-path="url(#clip1)">
<path style=" stroke:none;fill-rule:nonzero;fill:rgb(12.54902%,12.941176%,12.941176%);fill-opacity:1;" d="M 2.101562 39.285156 L 2.101562 10.714844 C 2.101562 9.082031 3.425781 7.757812 5.058594 7.757812 L 2.957031 7.757812 C 1.324219 7.757812 0 9.082031 0 10.714844 L 0 39.285156 C 0 40.917969 1.324219 42.242188 2.957031 42.242188 L 5.058594 42.242188 C 3.425781 42.242188 2.101562 40.917969 2.101562 39.285156 Z M 2.101562 39.285156 "/>
</g>
</defs>
<g id="surface1">
<path style=" stroke:none;fill-rule:nonzero;fill:rgb(100%,100%,100%);fill-opacity:1;" d="M 50 39.285156 C 50 40.917969 48.675781 42.242188 47.042969 42.242188 L 2.957031 42.242188 C 1.324219 42.242188 0 40.917969 0 39.285156 L 0 10.714844 C 0 9.082031 1.324219 7.757812 2.957031 7.757812 L 47.042969 7.757812 C 48.675781 7.757812 50 9.082031 50 10.714844 Z M 50 39.285156 "/>
<path style=" stroke:none;fill-rule:nonzero;fill:rgb(96.862745%,62.352941%,10.196078%);fill-opacity:1;" d="M 11.097656 25.199219 L 9.921875 19.566406 C 9.722656 18.789062 9.140625 18.558594 8.410156 18.527344 L 3.027344 18.527344 L 2.980469 18.785156 C 7.171875 19.800781 9.945312 22.253906 11.097656 25.199219 Z M 11.097656 25.199219 "/>
<path style=" stroke:none;fill-rule:nonzero;fill:rgb(1.960784%,60.784314%,74.901961%);fill-opacity:1;" d="M 23.570312 18.640625 L 20.09375 18.640625 L 17.917969 31.386719 L 21.390625 31.386719 Z M 23.570312 18.640625 "/>
<path style=" stroke:none;fill-rule:nonzero;fill:rgb(1.960784%,60.784314%,74.901961%);fill-opacity:1;" d="M 13.21875 31.375 L 18.6875 18.652344 L 15.007812 18.652344 L 11.605469 27.34375 L 11.242188 26.03125 C 10.574219 24.453125 8.667969 22.179688 6.429688 20.75 L 9.539062 31.378906 Z M 13.21875 31.375 "/>
<path style=" stroke:none;fill-rule:nonzero;fill:rgb(1.960784%,60.784314%,74.901961%);fill-opacity:1;" d="M 33.488281 27.222656 C 33.503906 25.773438 32.574219 24.671875 30.570312 23.757812 C 29.355469 23.171875 28.613281 22.777344 28.621094 22.179688 C 28.621094 21.652344 29.25 21.085938 30.609375 21.085938 C 31.75 21.066406 32.570312 21.316406 33.210938 21.574219 L 33.523438 21.71875 L 33.996094 18.957031 C 33.304688 18.699219 32.230469 18.421875 30.882812 18.421875 C 27.449219 18.421875 25.03125 20.152344 25.007812 22.628906 C 24.988281 24.460938 26.738281 25.480469 28.054688 26.09375 C 29.40625 26.714844 29.859375 27.113281 29.851562 27.671875 C 29.84375 28.527344 28.773438 28.914062 27.773438 28.914062 C 26.382812 28.914062 25.644531 28.722656 24.503906 28.246094 L 24.058594 28.042969 L 23.570312 30.898438 C 24.378906 31.253906 25.882812 31.5625 27.4375 31.578125 C 31.089844 31.578125 33.464844 29.871094 33.488281 27.222656 Z M 33.488281 27.222656 "/>
<path style=" stroke:none;fill-rule:nonzero;fill:rgb(1.960784%,60.784314%,74.901961%);fill-opacity:1;" d="M 37.621094 29.476562 C 38.015625 29.476562 41.5625 29.484375 42.070312 29.484375 C 42.175781 29.925781 42.492188 31.394531 42.492188 31.394531 L 45.71875 31.394531 L 42.902344 18.65625 L 40.21875 18.65625 C 39.386719 18.65625 38.769531 18.882812 38.402344 19.710938 L 33.242188 31.394531 L 36.890625 31.394531 C 36.890625 31.394531 37.484375 29.824219 37.621094 29.476562 Z M 40.003906 23.304688 C 39.984375 23.339844 40.289062 22.566406 40.464844 22.089844 L 40.699219 23.1875 C 40.699219 23.1875 41.363281 26.234375 41.503906 26.871094 L 38.621094 26.871094 C 38.90625 26.136719 40.003906 23.304688 40.003906 23.304688 Z M 40.003906 23.304688 "/>
<path style=" stroke:none;fill-rule:nonzero;fill:rgb(1.960784%,60.784314%,74.901961%);fill-opacity:1;" d="M 47.042969 7.757812 L 2.957031 7.757812 C 1.324219 7.757812 0 9.082031 0 10.714844 L 0 13.78125 L 50 13.78125 L 50 10.714844 C 50 9.082031 48.675781 7.757812 47.042969 7.757812 Z M 47.042969 7.757812 "/>
<path style=" stroke:none;fill-rule:nonzero;fill:rgb(96.862745%,62.352941%,10.196078%);fill-opacity:1;" d="M 47.042969 42.242188 L 2.957031 42.242188 C 1.324219 42.242188 0 40.917969 0 39.285156 L 0 36.21875 L 50 36.21875 L 50 39.285156 C 50 40.917969 48.675781 42.242188 47.042969 42.242188 Z M 47.042969 42.242188 "/>
<use xlink:href="#surface5" mask="url(#mask0)"/>
</g>
</svg>
